<?xml version="1.0" encoding="UTF-8" standalone="no"?>
<svg width="747px" height="111px" viewBox="0 0 747 111" version="1.1" xmlns="http://www.w3.org/2000/svg" xmlns:xlink="http://www.w3.org/1999/xlink">
    <!-- Generator: Sketch 39.1 (31720) - http://www.bohemiancoding.com/sketch -->
    <title>header</title>
    <desc>Created with Sketch.</desc>
    <defs>
        <filter x="-50%" y="-50%" width="200%" height="200%" filterUnits="objectBoundingBox" id="filter-1">
            <feOffset dx="0" dy="3" in="SourceAlpha" result="shadowOffsetOuter1"></feOffset>
            <feGaussianBlur stdDeviation="2.5" in="shadowOffsetOuter1" result="shadowBlurOuter1"></feGaussianBlur>
            <feColorMatrix values="0 0 0 0 0   0 0 0 0 0   0 0 0 0 0  0 0 0 0.5 0" type="matrix" in="shadowBlurOuter1" result="shadowMatrixOuter1"></feColorMatrix>
            <feMerge>
                <feMergeNode in="shadowMatrixOuter1"></feMergeNode>
                <feMergeNode in="SourceGraphic"></feMergeNode>
            </feMerge>
        </filter>
        <text id="text-2" font-family="OpenSans, Open Sans" font-size="30" font-weight="normal" line-spacing="28" letter-spacing="1.6000005" fill="#FFFFFF">
            <tspan x="112" y="94">Authentication Application Login</tspan>
        </text>
        <filter x="-50%" y="-50%" width="200%" height="200%" filterUnits="objectBoundingBox" id="filter-3">
            <feOffset dx="0" dy="2" in="SourceAlpha" result="shadowOffsetOuter1"></feOffset>
            <feGaussianBlur stdDeviation="2" in="shadowOffsetOuter1" result="shadowBlurOuter1"></feGaussianBlur>
            <feColorMatrix values="0 0 0 0 0   0 0 0 0 0   0 0 0 0 0  0 0 0 0.5 0" type="matrix" in="shadowBlurOuter1"></feColorMatrix>
        </filter>
        <filter x="-50%" y="-50%" width="200%" height="200%" filterUnits="objectBoundingBox" id="filter-4">
            <feOffset dx="0" dy="2" in="SourceAlpha" result="shadowOffsetOuter1"></feOffset>
            <feGaussianBlur stdDeviation="3" in="shadowOffsetOuter1" result="shadowBlurOuter1"></feGaussianBlur>
            <feColorMatrix values="0 0 0 0 0   0 0 0 0 0   0 0 0 0 0  0 0 0 0.5 0" type="matrix" in="shadowBlurOuter1" result="shadowMatrixOuter1"></feColorMatrix>
            <feMerge>
                <feMergeNode in="shadowMatrixOuter1"></feMergeNode>
                <feMergeNode in="SourceGraphic"></feMergeNode>
            </feMerge>
        </filter>
    </defs>
    <g id="EAS-Login" stroke="none" stroke-width="1" fill="none" fill-rule="evenodd">
        <g id="Focus-Manage" transform="translate(-347.000000, -131.000000)" fill="#FFFFFF">
            <g id="header" filter="url(#filter-1)" transform="translate(355.000000, 135.000000)">
                <g id="Authentication-Appli" fill-opacity="1">
                    <use filter="url(#filter-3)" xlink:href="#text-2"></use>
                    <use xlink:href="#text-2"></use>
                </g>
                <g id="Horizontal-" filter="url(#filter-4)">
                    <path d="M7.24443946,9.00891707 C7.24443946,6.2539363 7.10020628,4.36963341 6.58555605,3.57367788 C6.14630045,2.84594712 5.26778924,2.55680409 3.51404484,2.48533053 L0,2.26441226 L0,0.0909663462 C3.80578924,0.233913462 7.24443946,0.308635817 10.8306009,0.308635817 C14.1971345,0.308635817 17.6357848,0.233913462 21.441574,0.0909663462 L21.441574,2.26441226 L17.9275291,2.48533053 C16.1737848,2.55680409 15.2952735,2.84594712 14.8560179,3.57367788 C14.3413677,4.36963341 14.1971345,6.2539363 14.1971345,9.00891707 L14.1971345,33.9564375 C14.1971345,44.2551274 19.609157,47.2310264 29.2727803,47.2310264 C37.1728251,47.2310264 44.345148,44.2551274 44.345148,32.2183305 L44.345148,9.00891707 C44.345148,6.2539363 44.1976368,4.36963341 43.6862646,3.57367788 C43.247009,2.84594712 42.3684978,2.62827764 40.6147534,2.48533053 L37.3924529,2.26441226 L37.3924529,0.0909663462 C40.3197309,0.162439904 43.247009,0.308635817 45.8825426,0.308635817 C48.8098206,0.308635817 51.4420762,0.162439904 54.6610987,0.0909663462 L54.6610987,2.26441226 L51.4420762,2.48533053 C49.6850538,2.62827764 48.8098206,2.84594712 48.370565,3.57367788 C47.8591928,4.36963341 47.7116816,6.2539363 47.7116816,9.00891707 L47.7116816,29.9701623 C47.7116816,45.4896707 41.785009,51.727363 27.0011076,51.727363 C14.5609955,51.727363 7.24443946,48.026982 7.24443946,34.7556418 L7.24443946,9.00891707" id="Fill-1"></path>
                    <path d="M59.9288879,20.0320889 C59.9288879,17.7124471 58.3914933,17.0594387 53.490843,16.9879651 L53.490843,14.9574663 C55.3920987,15.0289399 57.1491211,15.1751358 59.4896323,15.1751358 C61.3908879,15.1751358 63.6625605,15.0289399 65.6359327,14.9574663 C73.103278,24.6031478 81.2229507,33.8134904 88.7624126,43.312976 L88.9066457,43.312976 L88.9066457,20.6850974 C88.9066457,17.3518305 86.7857623,16.9879651 82.1735785,16.9879651 L82.1735785,14.9574663 C85.1729731,15.0289399 88.0281345,15.1751358 90.3686457,15.1751358 C93.1516906,15.1751358 95.7872242,15.0289399 98.566991,14.9574663 L98.566991,16.9879651 C93.0041794,16.9879651 91.8339238,17.4947776 91.8339238,22.572649 L91.8339238,43.602119 C91.8339238,46.5032957 92.1256682,48.8976599 92.2731794,51.292024 L86.4186233,50.5642933 L63.0036771,22.4264531 L62.8561659,22.4264531 L62.8561659,44.4727969 C62.8561659,48.1017043 63.5871659,48.4623209 69.1499776,48.4623209 L69.1499776,50.4928197 C66.4423274,50.4180974 63.6625605,50.2751502 60.8795157,50.2751502 C58.3193767,50.2751502 55.6871211,50.4180974 53.1990987,50.4928197 L53.1990987,48.4623209 C58.8307489,48.4623209 59.9288879,47.6631166 59.9288879,44.0407067 L59.9288879,20.0320889" id="Fill-2"></path>
                    <path d="M109.030453,20.9774892 C109.030453,17.1309123 107.27343,16.9879651 102.441619,16.9879651 L102.441619,14.9574663 C105.077152,15.0289399 108.296175,15.1751358 112.101964,15.1751358 C115.616009,15.1751358 118.176148,15.0289399 122.198287,14.9574663 L122.198287,16.9879651 C116.786265,16.9879651 115.616009,17.0594387 115.616009,20.9774892 L115.616009,43.602119 C115.616009,47.9555084 116.199498,48.4623209 122.198287,48.4623209 L122.198287,50.4928197 C118.979265,50.4180974 115.760242,50.2751502 112.469103,50.2751502 C109.10257,50.2751502 105.808152,50.4180974 102.441619,50.4928197 L102.441619,48.4623209 C107.856919,48.4623209 109.030453,47.9555084 109.030453,43.602119 L109.030453,20.9774892" id="Fill-3"></path>
                    <path d="M143.344839,50.8534363 L130.980121,20.2497584 C129.881982,17.4233041 128.859238,16.9879651 125.492704,16.9879651 L125.492704,14.9574663 C129.150982,15.0289399 131.34726,15.1751358 133.396027,15.1751358 C136.028283,15.1751358 139.542327,15.0289399 143.200605,14.9574663 L143.200605,16.9879651 C138.958839,16.9879651 137.637794,17.0594387 137.637794,18.7293209 C137.637794,19.5252764 138.663816,21.6304976 139.542327,23.73247 L147.153906,42.6599675 L155.129345,22.2087837 C155.565323,21.1204363 155.932462,20.1782849 155.932462,19.1614111 C155.932462,17.4233041 154.250834,16.9879651 150.664673,16.9879651 L150.664673,14.9574663 C153.152695,15.0289399 155.348973,15.1751358 158.200857,15.1751358 C159.882484,15.1751358 161.787018,15.0289399 164.27504,14.9574663 L164.27504,16.9879651 C160.616762,16.9879651 160.177507,18.0730637 158.495879,22.3549796 L147.006395,50.8534363 L143.344839,50.8534363" id="Fill-4"></path>
                    <path d="M173.273224,21.9911142 C173.273224,17.2056346 171.958735,16.9164916 166.46804,16.9164916 L166.46804,14.9574663 C168.739713,15.0289399 170.78848,15.1751358 173.348619,15.1751358 C176.056269,15.1751358 178.691803,15.0289399 181.324058,14.8859928 C183.959592,14.7397969 186.663964,14.593601 189.299498,14.593601 C192.226776,14.593601 195.812937,14.8145192 198.153448,15.1751358 C197.714193,17.6409736 197.422448,20.3959543 197.278215,23.8786659 L195.229448,23.8786659 C195.006543,21.1204363 194.934426,19.5999988 194.49517,18.0730637 C191.640009,17.5662512 188.129242,17.3518305 184.615197,17.3518305 C182.861453,17.3518305 181.324058,17.5662512 180.006291,17.7871695 C179.786664,21.5557752 179.862058,26.2697812 179.862058,30.4769748 C181.543686,30.5484483 183.517058,30.6231707 186.88687,30.6231707 C190.397637,30.6231707 190.984404,29.8239663 190.984404,25.7629687 L193.177404,25.7629687 C193.105287,27.721994 193.03317,29.9701623 193.03317,31.9259387 C193.03317,34.174107 193.105287,36.6399447 193.180682,38.6704435 L190.984404,38.6704435 C190.984404,34.1026334 190.397637,33.2319555 184.031709,33.2319555 C182.20257,33.2319555 181.032314,33.3066779 179.862058,33.3781514 C179.862058,39.177256 179.934175,43.9659844 180.153803,47.3739736 C182.127175,47.5201695 184.103825,47.6631166 186.591848,47.6631166 C189.81087,47.6631166 193.03317,47.2992512 194.786915,46.7924387 C195.517915,44.8366623 196.032565,42.6599675 196.399704,40.2656034 L198.30096,40.2656034 C198.228843,43.9659844 198.005937,47.2992512 197.714193,50.1322031 C194.786915,50.4180974 191.204031,50.4928197 187.762103,50.4928197 C183.517058,50.4928197 179.934175,50.2751502 176.42013,50.2751502 C173.128991,50.2751502 170.568852,50.4180974 166.979413,50.4928197 L166.979413,48.4623209 C172.837247,48.4623209 173.273224,47.591643 173.273224,42.4422981 L173.273224,21.9911142" id="Fill-5"></path>
                    <path d="M203.20161,48.4623209 C208.472677,48.4623209 209.787166,48.316125 209.787166,44.0407067 L209.787166,21.2666322 C209.787166,17.4947776 209.203677,16.9879651 203.20161,16.9879651 L203.20161,14.9574663 C206.348516,14.9574663 209.34791,15.1751358 212.861955,15.1751358 C216.667744,15.1751358 220.912789,14.9574663 224.787417,14.9574663 C231.304135,14.9574663 236.132668,16.7702957 236.132668,22.7903185 C236.132668,29.5348233 229.838857,31.2729303 226.32809,32.5789471 L237.522552,46.1426791 C238.984552,47.8807861 239.571318,48.4623209 241.836435,48.4623209 L241.836435,50.2751502 L232.766135,50.2751502 L218.129744,32.725143 L218.424767,31.5653221 C219.227883,31.6367957 220.031,31.711518 221.057022,31.711518 C225.4463,31.711518 228.812834,28.5179495 228.812834,24.1678089 C228.812834,19.4538029 226.32809,17.3518305 221.057022,17.3518305 C219.447511,17.3518305 217.690489,17.4947776 216.376,18.0730637 L216.376,44.9081358 C216.376,48.316125 217.251233,48.4623209 222.814045,48.4623209 L222.814045,50.4928197 C221.057022,50.4180974 218.496883,50.2751502 213.1537,50.2751502 C209.862561,50.2751502 206.568143,50.4180974 203.20161,50.4928197 L203.20161,48.4623209" id="Fill-6"></path>
                    <path d="M265.326776,23.8786659 C265.254659,20.3959543 264.815404,19.2361334 263.864776,18.5116514 C262.17987,17.2771082 260.645753,16.7702957 257.790592,16.7702957 C253.106291,16.7702957 249.959386,19.5252764 249.959386,23.5148005 C249.959386,34.9018377 270.158587,23.6609964 270.158587,38.5274964 C270.158587,45.6326178 263.569753,51.292024 254.132314,51.292024 C249.375897,51.292024 246.815758,50.4928197 244.252341,49.2615252 C244.61948,46.7209651 244.691596,45.0543317 244.691596,40.9933341 L246.740363,40.9933341 C246.740363,46.4318221 249.156269,48.6799904 254.93543,48.6799904 C259.47222,48.6799904 264.009009,46.3570998 264.009009,40.5579952 C264.009009,29.460101 244.108108,41.1362813 244.108108,25.8344423 C244.108108,18.5116514 250.254408,14.158262 258.082336,14.158262 C263.569753,14.158262 266.352798,15.7566707 267.962309,16.6240998 C267.450937,19.2361334 267.375543,21.1204363 267.375543,23.8786659 L265.326776,23.8786659" id="Fill-7"></path>
                    <path d="M280.618771,20.9774892 C280.618771,17.1309123 278.861749,16.9879651 274.033215,16.9879651 L274.033215,14.9574663 C276.668749,15.0289399 279.887771,15.1751358 283.693561,15.1751358 C287.204327,15.1751358 289.764466,15.0289399 293.789883,14.9574663 L293.789883,16.9879651 C288.377861,16.9879651 287.204327,17.0594387 287.204327,20.9774892 L287.204327,43.602119 C287.204327,47.9555084 287.791094,48.4623209 293.789883,48.4623209 L293.789883,50.4928197 C290.570861,50.4180974 287.351839,50.2751502 284.057422,50.2751502 C280.690888,50.2751502 277.399749,50.4180974 274.033215,50.4928197 L274.033215,48.4623209 C279.448516,48.4623209 280.618771,47.9555084 280.618771,43.602119 L280.618771,20.9774892" id="Fill-8"></path>
                    <path d="M304.692601,48.4623209 C309.816157,48.4623209 310.986413,47.9555084 310.986413,44.4727969 L310.986413,17.9301166 L307.180623,17.9301166 C300.814695,17.9301166 300.155812,18.8007945 300.0083,21.5557752 L299.864067,24.4569519 L297.8153,24.4569519 L297.523556,14.9574663 C301.034323,15.1751358 306.302112,15.1751358 314.205435,15.1751358 C322.108758,15.1751358 327.376547,15.1751358 330.887314,14.9574663 L330.598848,24.4569519 L328.550081,24.4569519 L328.40257,21.5557752 C328.255058,18.8007945 327.596175,17.9301166 321.230247,17.9301166 L317.571969,17.9301166 L317.571969,44.4727969 C317.571969,47.6631166 318.594713,48.4623209 323.718269,48.4623209 L323.718269,50.4928197 C320.718874,50.4180974 317.71948,50.2751502 314.644691,50.2751502 C311.350274,50.2751502 307.987018,50.4180974 304.692601,50.4928197 L304.692601,48.4623209" id="Fill-9"></path>
                    <path d="M341.717915,48.4623209 C347.133215,48.4623209 348.159238,47.3739736 348.159238,44.9828582 L348.159238,35.4801238 C344.864821,29.6062969 342.15717,25.2529075 340.18052,22.5011755 C337.109009,18.2192596 336.305892,17.7871695 333.670359,17.7871695 L333.670359,15.7566707 C335.938753,15.3928053 339.157776,15.1004135 341.206543,14.5221274 C343.107798,15.1751358 345.012332,17.1309123 346.69396,20.2497584 L353.279516,32.2898041 C354.892305,29.460101 360.160094,20.1782849 362.79235,15.1751358 L367.768395,15.1751358 L367.768395,16.1887608 C363.451233,21.0489627 358.842327,28.735619 354.744794,35.9154627 L354.744794,43.3844495 C354.744794,48.316125 356.646049,48.4623209 361.038605,48.4623209 L361.038605,50.4928197 C357.816305,50.4180974 354.013794,50.2751502 351.37826,50.2751502 C347.572471,50.2751502 344.940215,50.4180974 341.717915,50.4928197 L341.717915,48.4623209" id="Fill-10"></path>
                    <path d="M389.868852,30.9837873 C389.868852,38.9628353 392.943641,48.3875986 403.187475,48.3875986 C411.81852,48.3875986 414.01152,40.1226563 414.01152,33.160482 C414.01152,24.1678089 410.209009,16.6240998 401.138709,16.6240998 C394.844897,16.6240998 389.868852,21.8481671 389.868852,30.9837873 L389.868852,30.9837873 Z M421.331354,31.4905998 C421.331354,41.2824772 413.867287,51.292024 401.427175,51.292024 C392.648619,51.292024 382.552296,44.7619399 382.552296,33.160482 C382.552296,20.6850974 391.917619,14.158262 402.525314,14.158262 C415.112937,14.158262 421.331354,22.572649 421.331354,31.4905998 L421.331354,31.4905998 Z" id="Fill-11"></path>
                    <path d="M431.208049,21.7019712 C431.208049,17.3518305 430.480327,16.9879651 424.770004,16.9879651 L424.770004,14.9574663 C427.041677,15.0289399 430.257422,15.1751358 433.109305,15.1751358 C435.380978,15.1751358 437.649372,15.0289399 439.84565,14.8859928 C442.114045,14.7397969 444.379161,14.593601 446.503323,14.593601 C449.941973,14.593601 452.50539,14.8859928 454.039507,15.1751358 C453.596973,17.7124471 453.311785,20.3959543 453.164274,23.73247 L451.115507,23.73247 C450.967996,21.9196406 450.748368,19.8891418 450.381229,18.0730637 C446.503323,17.4947776 441.671511,17.4947776 437.941117,17.4947776 C437.796883,20.7598197 437.796883,24.9670132 437.796883,31.2014567 C438.822906,31.2729303 440.871673,31.3476526 443.067951,31.3476526 C447.017973,31.3476526 447.450673,30.9837873 448.040717,26.4874507 L450.089484,26.4874507 C450.01409,27.9396635 449.941973,31.4905998 449.941973,32.9428125 C449.941973,34.7556418 450.01409,37.2214796 450.089484,39.2519784 L448.040717,39.2519784 C447.676857,34.1026334 446.795067,33.9564375 442.989278,33.9564375 C440.871673,33.9564375 439.403117,34.0311599 437.796883,34.1026334 L437.796883,44.1836538 C437.796883,47.5201695 438.527883,48.4623209 444.090695,48.4623209 L444.087417,50.4928197 C442.03865,50.4180974 436.918372,50.2751502 434.135327,50.2751502 C430.332816,50.2751502 428.352888,50.4180974 424.622493,50.4928197 L424.622493,48.4623209 C430.332816,48.4623209 431.208049,47.5201695 431.208049,43.4591719 L431.208049,21.7019712" id="Fill-12"></path>
                    <path d="M485.502009,41.5716202 C485.502009,44.326601 485.64952,46.2141526 486.160892,47.013357 C486.603426,47.7378389 487.478659,48.026982 489.235682,48.1017043 L492.749726,48.316125 L492.749726,50.4928197 C488.943937,50.3466238 485.502009,50.2751502 482.138753,50.2751502 C478.552592,50.2751502 475.110664,50.3466238 471.308152,50.4928197 L471.308152,48.316125 L474.818919,48.1017043 C476.575942,48.026982 477.454453,47.7378389 477.896987,47.013357 C478.408359,46.2141526 478.552592,44.326601 478.552592,41.5716202 L478.552592,9.00891707 C478.552592,6.2539363 478.408359,4.36963341 477.896987,3.57367788 C477.454453,2.84594712 476.575942,2.55680409 474.818919,2.48533053 L471.308152,2.26441226 L471.308152,0.0909663462 C475.110664,0.233913462 478.552592,0.308635817 482.138753,0.308635817 C485.502009,0.308635817 488.943937,0.233913462 492.749726,0.0909663462 L492.749726,2.26441226 L489.235682,2.48533053 C487.478659,2.55680409 486.603426,2.84594712 486.160892,3.57367788 C485.64952,4.36963341 485.502009,6.2539363 485.502009,9.00891707 L485.502009,41.5716202" id="Fill-13"></path>
                    <path d="M502.403516,20.3959543 C502.403516,17.0594387 501.236538,16.9879651 495.821238,16.9879651 L495.821238,14.9574663 C499.187771,15.0289399 501.820027,15.1751358 505.186561,15.1751358 C507.674583,15.1751358 511.257466,15.0289399 515.286161,14.9574663 L515.286161,16.9879651 C510.598583,16.9879651 508.99235,17.0594387 508.99235,21.4843017 L508.99235,40.7009423 C508.99235,43.1700288 509.061188,45.1258053 509.284094,47.4454471 C510.746094,47.5201695 512.211372,47.591643 514.260139,47.591643 C518.796928,47.591643 522.894462,47.2992512 524.943229,46.578018 L526.405229,40.7009423 L528.601507,40.7009423 C527.942623,43.8197885 527.578762,46.8671611 527.355857,50.2751502 C524.943229,50.4180974 521.579973,50.4928197 518.357673,50.4928197 C511.332861,50.4928197 509.2087,50.2751502 505.773327,50.2751502 C502.698538,50.2751502 500.721888,50.4180974 498.161749,50.4928197 L498.161749,48.4623209 C501.380771,47.9555084 502.403516,47.5201695 502.403516,42.7314411 L502.403516,20.3959543" id="Fill-14"></path>
                    <path d="M538.409363,20.3959543 C538.409363,17.0594387 537.23583,16.9879651 531.823807,16.9879651 L531.823807,14.9574663 C535.187063,15.0289399 537.822596,15.1751358 541.18913,15.1751358 C543.673874,15.1751358 547.260036,15.0289399 551.285453,14.9574663 L551.285453,16.9879651 C546.60443,16.9879651 544.991641,17.0594387 544.991641,21.4843017 L544.991641,40.7009423 C544.991641,43.1700288 545.067036,45.1258053 545.286664,47.4454471 C546.748664,47.5201695 548.213942,47.591643 550.262709,47.591643 C554.799498,47.591643 558.897031,47.2992512 560.945798,46.578018 L562.407798,40.7009423 L564.604076,40.7009423 C563.945193,43.8197885 563.578054,46.8671611 563.361704,50.2751502 C560.945798,50.4180974 557.579265,50.4928197 554.360242,50.4928197 C547.33543,50.4928197 545.211269,50.2751502 541.772619,50.2751502 C538.69783,50.2751502 536.724457,50.4180974 534.164318,50.4928197 L534.164318,48.4623209 C537.383341,47.9555084 538.409363,47.5201695 538.409363,42.7314411 L538.409363,20.3959543" id="Fill-15"></path>
                    <path d="M574.920027,20.9774892 C574.920027,17.1309123 573.163004,16.9879651 568.334471,16.9879651 L568.334471,14.9574663 C570.966726,15.0289399 574.189027,15.1751358 577.994816,15.1751358 C581.505583,15.1751358 584.065722,15.0289399 588.094417,14.9574663 L588.094417,16.9879651 C582.675839,16.9879651 581.505583,17.0594387 581.505583,20.9774892 L581.505583,43.602119 C581.505583,47.9555084 582.09235,48.4623209 588.094417,48.4623209 L588.094417,50.4928197 C584.872117,50.4180974 581.653094,50.2751502 578.361955,50.2751502 C574.995422,50.2751502 571.701004,50.4180974 568.334471,50.4928197 L568.334471,48.4623209 C573.753049,48.4623209 574.920027,47.9555084 574.920027,43.602119 L574.920027,20.9774892" id="Fill-16"></path>
                    <path d="M598.990578,20.0320889 C598.990578,17.7124471 597.453184,17.0594387 592.555812,16.9879651 L592.555812,14.9574663 C594.457067,15.0289399 596.210812,15.1751358 598.554601,15.1751358 C600.455857,15.1751358 602.724251,15.0289399 604.700901,14.9574663 C612.168247,24.6031478 620.284641,33.8134904 627.827381,43.312976 L627.968336,43.312976 L627.968336,20.6850974 C627.968336,17.3518305 625.847453,16.9879651 621.238547,16.9879651 L621.238547,14.9574663 C624.24122,15.0289399 627.089825,15.1751358 629.433614,15.1751358 C632.213381,15.1751358 634.848915,15.0289399 637.628682,14.9574663 L637.628682,16.9879651 C632.06587,16.9879651 630.898892,17.4947776 630.898892,22.572649 L630.898892,43.602119 C630.898892,46.5032957 631.187359,48.8976599 631.33487,51.292024 L625.483592,50.5642933 L602.065368,22.4264531 L601.924413,22.4264531 L601.924413,44.4727969 C601.924413,48.1017043 602.652135,48.4623209 608.214946,48.4623209 L608.214946,50.4928197 C605.507296,50.4180974 602.724251,50.2751502 599.944484,50.2751502 C597.384345,50.2751502 594.75209,50.4180974 592.260789,50.4928197 L592.260789,48.4623209 C597.895717,48.4623209 598.990578,47.6631166 598.990578,44.0407067 L598.990578,20.0320889" id="Fill-17"></path>
                    <path d="M645.75491,30.9837873 C645.75491,38.9628353 648.826422,48.3875986 659.070256,48.3875986 C667.7013,48.3875986 669.897578,40.1226563 669.897578,33.160482 C669.897578,24.1678089 666.095067,16.6240998 657.021489,16.6240998 C650.727677,16.6240998 645.75491,21.8481671 645.75491,30.9837873 L645.75491,30.9837873 Z M677.214135,31.4905998 C677.214135,41.2824772 669.750067,51.292024 657.309955,51.292024 C648.531399,51.292024 638.435076,44.7619399 638.435076,33.160482 C638.435076,20.6850974 647.803677,14.158262 658.411372,14.158262 C670.998996,14.158262 677.214135,22.572649 677.214135,31.4905998 L677.214135,31.4905998 Z" id="Fill-18"></path>
                    <path d="M685.776341,20.9774892 C685.776341,17.1309123 684.019318,16.9879651 679.194063,16.9879651 L679.194063,14.9574663 C681.826318,15.0289399 685.045341,15.1751358 688.847852,15.1751358 C692.361897,15.1751358 694.925314,15.0289399 698.944175,14.9574663 L698.944175,16.9879651 C693.53543,16.9879651 692.361897,17.0594387 692.361897,20.9774892 L692.361897,43.602119 C692.361897,47.9555084 692.945386,48.4623209 698.944175,48.4623209 L698.944175,50.4928197 C695.731709,50.4180974 692.509408,50.2751502 689.211713,50.2751502 C685.851735,50.2751502 682.55404,50.4180974 679.194063,50.4928197 L679.194063,48.4623209 C684.602807,48.4623209 685.776341,47.9555084 685.776341,43.602119 L685.776341,20.9774892" id="Fill-19"></path>
                    <path d="M724.850422,23.8786659 C724.778305,20.3959543 724.335771,19.2361334 723.388422,18.5116514 C721.706794,17.2771082 720.169399,16.7702957 717.314238,16.7702957 C712.633215,16.7702957 709.483031,19.5252764 709.483031,23.5148005 C709.483031,34.9018377 729.682233,23.6609964 729.682233,38.5274964 C729.682233,45.6326178 723.093399,51.292024 713.65596,51.292024 C708.899543,51.292024 706.339404,50.4928197 703.779265,49.2615252 C704.143126,46.7209651 704.215242,45.0543317 704.215242,40.9933341 L706.264009,40.9933341 C706.264009,46.4318221 708.676637,48.6799904 714.459076,48.6799904 C718.995865,48.6799904 723.535933,46.3570998 723.535933,40.5579952 C723.535933,29.460101 703.631753,41.1362813 703.631753,25.8344423 C703.631753,18.5116514 709.778054,14.158262 717.60926,14.158262 C723.093399,14.158262 725.873166,15.7566707 727.485955,16.6240998 C726.974583,19.2361334 726.899188,21.1204363 726.899188,23.8786659 L724.850422,23.8786659" id="Fill-20"></path>
                </g>
            </g>
        </g>
    </g>
</svg>