<?xml version="1.0" encoding="UTF-8" standalone="no"?>
<svg width="720px" height="660px" viewBox="0 0 720 660" version="1.1" xmlns="http://www.w3.org/2000/svg" xmlns:xlink="http://www.w3.org/1999/xlink">
    <!-- Generator: Sketch 39.1 (31720) - http://www.bohemiancoding.com/sketch -->
    <title>More</title>
    <desc>Created with Sketch.</desc>
    <defs>
        <path d="M0,5.00052374 C0,2.23881074 2.23859317,0 5.00052374,0 L634.999476,0 C637.761189,0 640,2.23859317 640,5.00052374 L640,634.999476 C640,637.761189 637.761407,640 634.999476,640 L5.00052374,640 C2.23881074,640 0,637.761407 0,634.999476 L0,5.00052374 Z M640,98 L700,122.105461 L700,265.532957 L640,289.638418 L640,98 Z" id="path-1"></path>
        <filter x="-50%" y="-50%" width="200%" height="200%" filterUnits="objectBoundingBox" id="filter-2">
            <feOffset dx="0" dy="0" in="SourceAlpha" result="shadowOffsetOuter1"></feOffset>
            <feGaussianBlur stdDeviation="5" in="shadowOffsetOuter1" result="shadowBlurOuter1"></feGaussianBlur>
            <feColorMatrix values="0 0 0 0 0   0 0 0 0 0   0 0 0 0 0  0 0 0 0.5 0" type="matrix" in="shadowBlurOuter1"></feColorMatrix>
        </filter>
        <rect id="path-3" x="0" y="0" width="202.528517" height="55.4425612" rx="2"></rect>
        <mask id="mask-4" maskContentUnits="userSpaceOnUse" maskUnits="objectBoundingBox" x="0" y="0" width="202.528517" height="55.4425612" fill="white">
            <use xlink:href="#path-3"></use>
        </mask>
        <rect id="path-5" x="0" y="0" width="202.528517" height="55.4425612" rx="2"></rect>
        <mask id="mask-6" maskContentUnits="userSpaceOnUse" maskUnits="objectBoundingBox" x="0" y="0" width="202.528517" height="55.4425612" fill="white">
            <use xlink:href="#path-5"></use>
        </mask>
    </defs>
    <g id="EAS-Login" stroke="none" stroke-width="1" fill="none" fill-rule="evenodd">
        <g id="Focus-Manage" transform="translate(-623.000000, -276.000000)">
            <g id="More" transform="translate(633.000000, 286.000000)">
                <g id="Combined-Shape">
                    <use fill="black" fill-opacity="1" filter="url(#filter-2)" xlink:href="#path-1"></use>
                    <use fill="#2F70BD" fill-rule="evenodd" xlink:href="#path-1"></use>
                </g>
                <g id="ID-Copy" transform="translate(82.647167, 176.042745)">
                    <text id="Enterprise-ID" font-family="OpenSans-Semibold, Open Sans" font-size="25" font-weight="500" letter-spacing="1.19565213" fill="#FFFFFF">
                        <tspan x="8.64717516" y="27">Enterprise ID</tspan>
                    </text>
                    <path d="M9.89483883,86.1041475 L444.875224,86.1041475" id="Line" stroke="#FFFFFF" stroke-linecap="square"></path>
                </g>
                <g id="Password-Copy" transform="translate(83.695681, 330.317698)">
                    <path d="M8.84632552,84.8988744 L443.826711,84.8988744" id="Line-Copy" stroke="#FFFFFF" stroke-linecap="square"></path>
                    <text id="Password" font-family="OpenSans-Semibold, Open Sans" font-size="25" font-weight="500" letter-spacing="1.19565225" fill="#FFFFFF">
                        <tspan x="6.77597371" y="27">Password</tspan>
                    </text>
                </g>
                <text id="Manage-Login-Account" font-family="OpenSans, Open Sans" font-size="36" font-weight="normal" letter-spacing="1.72173858" fill="#FFFFFF">
                    <tspan x="86.1782754" y="123.294092">Manage Login Account</tspan>
                </text>
                <g id="Change-Password" transform="translate(81.520913, 490.546139)">
                    <use id="Rectangle" stroke="#FFFFFF" mask="url(#mask-4)" stroke-width="2" xlink:href="#path-3"></use>
                    <text font-family="OpenSans, Open Sans" font-size="16" font-weight="normal" letter-spacing="0.765217543" fill="#FFFFFF">
                        <tspan x="30.6136847" y="30.2580038">Change Password</tspan>
                    </text>
                </g>
                <g id="Recovery-Options" transform="translate(304.429658, 490.546139)">
                    <use id="Rectangle" stroke="#FFFFFF" mask="url(#mask-6)" stroke-width="2" xlink:href="#path-5"></use>
                    <text font-family="OpenSans, Open Sans" font-size="16" font-weight="normal" letter-spacing="0.765217543" fill="#FFFFFF">
                        <tspan x="31.1334197" y="30.2580038">Recovery Options</tspan>
                    </text>
                </g>
                <g id="Gear" transform="translate(649.323194, 173.764595)" fill="#FFFFFF">
                    <path d="M30.4694761,33.7934307 L28.8783349,30.4510434 C30.3951764,29.3974896 31.6979702,28.0868291 32.7159036,26.5908894 L36.3388881,27.8898747 C37.0317265,28.138352 37.8058387,27.8081488 38.0681678,27.1528186 L39.3996622,23.8271826 C39.5257304,23.5124616 39.5144647,23.1632229 39.3682793,22.85637 C39.2220938,22.549517 38.9533272,22.3101768 38.6204536,22.1908874 L34.9974691,20.8919021 C35.282866,19.1330181 35.2249283,17.3350477 34.8266065,15.5946916 L38.3589292,14.0891072 C38.6832195,13.9507823 38.9361605,13.6964674 39.0622287,13.3814927 C39.1882968,13.0667717 39.1770312,12.717533 39.0308457,12.4106801 L37.4871813,9.16829283 C37.1830083,8.52920625 36.3885106,8.24494217 35.7136436,8.53250574 L32.1813209,10.0380902 C31.0678976,8.60281034 29.6827571,7.37006868 28.1018087,6.40687028 L29.4746105,2.97869617 C29.7369396,2.32336593 29.3882404,1.59062449 28.6956702,1.34240103 L25.1813189,0.0822481856 C24.8489818,-0.0367874002 24.4798971,-0.0263813042 24.1553386,0.11194363 C23.8310484,0.250268565 23.5781074,0.504583399 23.4520392,0.819558158 L22.0795056,4.24747846 C20.2187931,3.97590474 18.315432,4.03199613 16.4810061,4.40889985 L14.8901331,1.06676639 C14.7439477,0.759913461 14.4751811,0.520573253 14.1423075,0.40128386 C13.8099704,0.282248274 13.4406174,0.29265437 13.1163272,0.430979305 L9.68941894,1.89163985 C9.01401545,2.17945724 8.71332946,2.93072661 9.01750244,3.56981319 L10.6086436,6.91220046 C9.09180219,7.96575422 7.7890084,9.2764147 6.77107501,10.7723545 L3.14809051,9.47336911 C2.81575337,9.35433352 2.44666869,9.36499342 2.12211022,9.50306455 C1.79781998,9.64138949 1.54487896,9.89570432 1.4188108,10.2106791 L0.0873163792,13.5360613 C-0.175012698,14.1913915 0.173686484,14.9241329 0.866256706,15.1723564 L4.48924121,16.4713418 C4.20384434,18.229972 4.26178205,20.0284499 4.66010381,21.7685522 L1.12751286,23.2741367 C0.803222624,23.4124616 0.550281601,23.6667764 0.424213435,23.9817512 C0.298145269,24.2964721 0.309410935,24.6457109 0.455596362,24.9525638 L1.99926082,28.194951 C2.14517802,28.501804 2.41421285,28.7411442 2.74681822,28.8604336 C3.07969182,28.9797229 3.44850827,28.9693168 3.77279851,28.8307381 L7.30512122,27.3251537 C8.41854453,28.7606873 9.80341675,29.9931752 11.3846334,30.9563736 L10.0118316,34.3845477 C9.74950249,35.0398779 10.0982017,35.7726194 10.7907719,36.0208428 L14.3053914,37.2807419 C14.4585508,37.3355642 14.6197571,37.3629754 14.780427,37.3629754 C14.9684563,37.3629754 15.1564857,37.3256657 15.3313717,37.2510464 C15.6556619,37.1127215 15.908603,36.8584066 16.0346711,36.5434319 L17.4072048,33.1155116 C19.2679172,33.3868315 21.1715466,33.3309939 23.0057043,32.9540902 L24.5965772,36.2962237 C24.7427626,36.6030766 25.0115292,36.8424168 25.3444028,36.9617062 C25.6770082,37.0809956 26.0463611,37.0705895 26.3703831,36.9320107 L29.7970232,35.471604 C30.4726949,35.1837866 30.7736491,34.4325172 30.4694761,33.7934307 Z M28.3310586,21.5543243 C26.9998324,24.8791989 23.5817758,27.1129562 19.8257491,27.1129562 C18.7270785,27.1129562 17.6436969,26.9241236 16.6056463,26.5520422 C14.3342734,25.7378287 12.5339127,24.1352899 11.5363649,22.0396037 C10.538817,19.9441713 10.4634443,17.606353 11.3239266,15.4571135 C12.6551528,12.1322389 16.0732094,9.89848155 19.8292361,9.89848155 C20.9279068,9.89848155 22.0112883,10.0873141 23.0493389,10.4593955 C25.3207118,11.2736091 27.1210725,12.8761478 28.1186204,14.9715803 C29.1164365,17.0672665 29.1918091,19.4050848 28.3310586,21.5543243 Z" id="Combined-Shape"></path>
                </g>
            </g>
        </g>
    </g>
</svg>